<?xml version="1.0" encoding="iso-8859-1"?>
<!-- Generator: Adobe Illustrator 21.0.0, SVG Export Plug-In . SVG Version: 6.00 Build 0)  -->
<svg version="1.1" id="Capa_1" xmlns="http://www.w3.org/2000/svg" xmlns:xlink="http://www.w3.org/1999/xlink" x="0px" y="0px"
	 viewBox="0 0 597.829 597.829" style="enable-background:new 0 0 597.829 597.829;" xml:space="preserve">
<g>
	<g>
		<g id="flat_2_">
			<path style="fill:#4398D1;" d="M35.464,81.062c-16.79,0-30.398,13.608-30.398,30.398v314.114h587.697V111.46
				c0-16.79-13.608-30.398-30.398-30.398H35.464z"/>
			<path style="fill:#3E8CC7;" d="M562.365,81.062h-91.194L126.659,425.573h466.104V111.46
				C592.763,94.67,579.155,81.062,562.365,81.062z"/>
			<path style="fill:#87CED9;" d="M96.261,0h405.308c16.79,0,30.398,13.608,30.398,30.398v324.246
				c0,16.79-13.608,30.398-30.398,30.398H96.261c-16.79,0-30.398-13.608-30.398-30.398V30.398C65.863,13.608,79.471,0,96.261,0z"/>
			<path style="fill:#71C4D1;" d="M501.569,0h-25.332L91.66,384.576c1.52,0.274,3.06,0.426,4.6,0.466h405.308
				c16.79,0,30.398-13.608,30.398-30.398V30.398C531.967,13.608,518.359,0,501.569,0z"/>
			<polygon style="fill:#DADDDF;" points="376.936,577.564 349.578,486.37 248.251,486.37 220.893,577.564 187.455,577.564 
				187.455,597.829 410.374,597.829 410.374,577.564 			"/>
			<path style="fill:#DADDDF;" d="M5.066,425.573v30.398c0,16.79,13.608,30.398,30.398,30.398h526.9
				c16.79,0,30.398-13.608,30.398-30.398v-30.398H5.066z"/>
			<path style="fill:#3269A1;" d="M298.915,121.592c-16.79,0-30.398,13.608-30.398,30.398v30.398h60.796V151.99
				C329.313,135.201,315.704,121.592,298.915,121.592z"/>
			<rect x="96.261" y="70.929" style="fill:#5EB3D1;" width="405.308" height="20.265"/>
			<rect x="96.261" y="121.592" style="fill:#5EB3D1;" width="60.796" height="20.265"/>
			<rect x="96.261" y="172.256" style="fill:#5EB3D1;" width="60.796" height="20.265"/>
			<rect x="96.261" y="324.246" style="fill:#5EB3D1;" width="50.663" height="20.265"/>
			<rect x="96.261" y="30.398" style="fill:#5EB3D1;" width="20.265" height="20.265"/>
			<rect x="136.791" y="30.398" style="fill:#5EB3D1;" width="20.265" height="20.265"/>
			<rect x="177.322" y="30.398" style="fill:#5EB3D1;" width="20.265" height="20.265"/>
			<path style="fill:#3269A1;" d="M238.189,212.787h-40.602c-4.823,0.01-8.978-3.384-9.94-8.106l-10.133-50.663l19.88-3.982
				l8.511,42.557h32.252L238.189,212.787z"/>
			<path style="fill:#3269A1;" d="M186.766,338.209l-18.837-7.539l20.265-50.664c1.52-3.861,5.239-6.414,9.393-6.424h30.398v20.265
				h-23.498L186.766,338.209z"/>
			<path style="fill:#3269A1;" d="M154.098,280.777L139.76,266.49l30.398-30.398c1.885-1.925,4.469-3.02,7.164-3.04h60.796v20.265
				h-56.571L154.098,280.777z"/>
			<path style="fill:#3269A1;" d="M400.424,212.787h-40.531v-20.265h32.242l8.511-42.557l19.86,3.952l-10.133,50.663
				C409.452,209.342,405.278,212.787,400.424,212.787z"/>
			<path style="fill:#3269A1;" d="M411.094,338.148l-17.712-44.3h-23.538v-20.265h30.398c4.144,0,7.873,2.513,9.413,6.363
				l20.265,50.663L411.094,338.148z"/>
			<path style="fill:#3269A1;" d="M443.741,280.747l-27.429-27.429h-56.601v-20.265h60.796c2.685,0,5.269,1.064,7.164,2.969
				l30.398,30.398L443.741,280.747z"/>
			<rect x="96.261" y="222.919" style="fill:#5EB3D1;" width="30.398" height="20.265"/>
			<rect x="96.261" y="273.583" style="fill:#5EB3D1;" width="20.265" height="20.265"/>
			<rect x="440.772" y="121.592" style="fill:#5EB3D1;" width="60.796" height="20.265"/>
			<rect x="440.772" y="172.256" style="fill:#5EB3D1;" width="60.796" height="20.265"/>
			<rect x="450.905" y="324.246" style="fill:#5EB3D1;" width="50.663" height="20.265"/>
			<rect x="471.171" y="222.919" style="fill:#5EB3D1;" width="30.398" height="20.265"/>
			<rect x="481.303" y="273.583" style="fill:#5EB3D1;" width="20.265" height="20.265"/>
			<ellipse style="fill:#E34B87;" cx="298.915" cy="253.317" rx="81.062" ry="91.194"/>
			<path style="fill:#D94881;" d="M354.178,186.725c3.658,11.278,5.522,23.072,5.532,34.927c0,56.662-40.825,102.594-91.194,102.594
				c-8.248-0.041-16.455-1.317-24.318-3.81c14.186,15.158,33.955,23.862,54.717,24.075c44.766,0,81.062-40.825,81.062-91.194
				C380.219,228.634,370.978,204.802,354.178,186.725z"/>
			<path style="fill:#BF3D75;" d="M238.615,192.521c-4.924,6.201-9.038,13.021-12.24,20.265h62.407v130.935
				c6.718,1.054,13.547,1.054,20.265,0V212.787h62.407c-3.202-7.245-7.316-14.064-12.24-20.265H238.615z"/>
			<polygon style="fill:#C1C7C9;" points="358.698,516.768 349.578,486.37 248.251,486.37 239.132,516.768 			"/>
		</g>
	</g>
</g>
<g>
</g>
<g>
</g>
<g>
</g>
<g>
</g>
<g>
</g>
<g>
</g>
<g>
</g>
<g>
</g>
<g>
</g>
<g>
</g>
<g>
</g>
<g>
</g>
<g>
</g>
<g>
</g>
<g>
</g>
</svg>
