<?xml version="1.0" encoding="iso-8859-1"?>
<!-- Generator: Adobe Illustrator 19.0.0, SVG Export Plug-In . SVG Version: 6.00 Build 0)  -->
<svg version="1.1" id="Capa_1" xmlns="http://www.w3.org/2000/svg" xmlns:xlink="http://www.w3.org/1999/xlink" x="0px" y="0px"
	 viewBox="0 0 496 496" style="enable-background:new 0 0 496 496;" xml:space="preserve">
<g>
	<rect x="272" y="64" style="fill:#F0BC5E;" width="72" height="48"/>
	<rect x="272" y="160" style="fill:#F0BC5E;" width="72" height="48"/>
	<rect x="272" y="256" style="fill:#F0BC5E;" width="72" height="48"/>
	<rect x="272" y="352" style="fill:#F0BC5E;" width="72" height="48"/>
	<path style="fill:#F0BC5E;" d="M96,208H32v-48h64V208z"/>
	<path style="fill:#F0BC5E;" d="M96,304H32v-48h64V304z"/>
	<path style="fill:#F0BC5E;" d="M96,400H32v-48h64V400z"/>
	<path style="fill:#F0BC5E;" d="M464,208h-64v-48h64V208z"/>
	<path style="fill:#F0BC5E;" d="M464,304h-64v-48h64V304z"/>
	<path style="fill:#F0BC5E;" d="M464,400h-64v-48h64V400z"/>
</g>
<path d="M144,464h16v-32h176v32h16V32H144V464z M160,416v-80h176v80H160z M336,240v80H160v-80H336z M160,224v-80h176v80H160z
	 M336,48v80H160V48H336z"/>
<path d="M256,64h-80v48h80V64z M192,80h16v16h-16V80z M240,96h-16V80h16V96z"/>
<rect x="272" y="64" width="16" height="16"/>
<rect x="304" y="64" width="16" height="16"/>
<rect x="272" y="96" width="16" height="16"/>
<rect x="304" y="96" width="16" height="16"/>
<path d="M176,208h80v-48h-80V208z M240,192h-16v-16h16V192z M192,176h16v16h-16V176z"/>
<rect x="272" y="160" width="16" height="16"/>
<rect x="304" y="160" width="16" height="16"/>
<rect x="272" y="192" width="16" height="16"/>
<rect x="304" y="192" width="16" height="16"/>
<path d="M256,304v-48h-80v48H256z M240,288h-16v-16h16V288z M192,272h16v16h-16V272z"/>
<rect x="272" y="256" width="16" height="16"/>
<rect x="304" y="256" width="16" height="16"/>
<rect x="272" y="288" width="16" height="16"/>
<rect x="304" y="288" width="16" height="16"/>
<path d="M176,400h80v-48h-80V400z M240,384h-16v-16h16V384z M192,368h16v16h-16V368z"/>
<rect x="272" y="352" width="16" height="16"/>
<rect x="304" y="352" width="16" height="16"/>
<rect x="272" y="384" width="16" height="16"/>
<rect x="304" y="384" width="16" height="16"/>
<rect x="176" y="448" width="16" height="16"/>
<rect x="208" y="448" width="16" height="16"/>
<rect x="240" y="448" width="16" height="16"/>
<rect x="272" y="448" width="16" height="16"/>
<rect x="304" y="448" width="16" height="16"/>
<rect x="32" y="448" width="16" height="16"/>
<rect x="64" y="448" width="16" height="16"/>
<path d="M472,128h-88V24c0-13.232-10.768-24-24-24H136c-13.232,0-24,10.768-24,24v104H24c-13.232,0-24,10.768-24,24v344h112h8h256h8
	h112V152C496,138.768,485.232,128,472,128z M24,144h88v80H16v-72C16,147.584,19.592,144,24,144z M16,320v-80h96v80H16z M112,336v80
	H16v-80H112z M16,480v-48h96v48H16z M368,480H128V24c0-4.416,3.592-8,8-8h224c4.408,0,8,3.584,8,8V480z M472,144
	c4.408,0,8,3.584,8,8v72h-96v-80H472z M384,320v-80h96v80H384z M480,336v80h-96v-80H480z M384,480v-48h96v48H384z"/>
<rect x="448" y="448" width="16" height="16"/>
<rect x="416" y="448" width="16" height="16"/>
<g>
</g>
<g>
</g>
<g>
</g>
<g>
</g>
<g>
</g>
<g>
</g>
<g>
</g>
<g>
</g>
<g>
</g>
<g>
</g>
<g>
</g>
<g>
</g>
<g>
</g>
<g>
</g>
<g>
</g>
</svg>
